<svg height="512pt" viewBox="-49 0 512 512" width="512pt" xmlns="http://www.w3.org/2000/svg"><path d="m308.191406 107.378906c-26.398437-26.726562-61.609375-41.710937-99.144531-42.199218-38.074219-.496094-74.070313 14.035156-101.378906 40.910156-27.292969 26.859375-42.386719 62.601562-42.5 100.644531-.121094 41.175781 17.609375 80.332031 48.644531 107.429687 22.46875 19.617188 35.355469 47.515626 35.355469 76.53125v71.636719c0 27.386719 22.28125 49.667969 49.667969 49.667969h16.667968c27.382813 0 49.664063-22.28125 49.664063-49.667969v-70.71875c0-29.84375 12.640625-57.859375 34.683593-76.867187 31.339844-27.019532 49.316407-66.234375 49.316407-107.578125 0-37.601563-14.550781-73.042969-40.976563-99.789063zm-101.148437 171.773438h-6.632813c-3.625 0-6.574218-2.949219-6.574218-6.578125 0-3.625 2.949218-6.574219 6.574218-6.574219 3.65625 0 6.632813 2.976562 6.632813 6.632812zm.125 59.433594c5.515625 0 10 4.484374 10 10v34h-20v-34c0-5.515626 4.484375-10 10-10zm38 64v14.707031h-76v-14.707031zm-76 34.707031h76v14.707031h-76zm46.332031 54.707031h-16.664062c-12.976563 0-24.023438-8.375-28.042969-20h72.75c-4.019531 11.625-15.066407 20-28.042969 20zm71.292969-192.398438c-24.207031 20.871094-38.96875 50.726563-41.300781 82.984376h-8.324219v-34c0-8.929688-3.925781-16.953126-10.132813-22.453126 0-.042968.007813-.085937.007813-.132812v-32.867188c8.144531-5.84375 13.457031-15.390624 13.457031-26.15625v-15.488281c0-21.304687-17.332031-38.640625-38.640625-38.640625h-18.023437c-5.523438 0-10 4.476563-10 10 0 5.523438 4.476562 10 10 10h18.023437c10.28125 0 18.640625 8.363282 18.640625 18.640625v3.679688c-4.886719-5.613281-12.078125-9.167969-20.089844-9.167969-14.652344 0-26.574218 11.921875-26.574218 26.578125 0 14.652344 11.921874 26.574219 26.574218 26.574219h6.632813v19.4375c-16.484375.066406-29.875 13.496094-29.875 29.996094v34h-8.277344c-2.191406-31.832032-17.195313-61.898438-41.921875-83.488282-26.671875-23.28125-41.90625-56.925781-41.800781-92.300781.097656-32.664063 13.070312-63.367187 36.53125-86.453125 23.472656-23.101562 54.375-35.59375 87.085937-35.164062 66.378906.859374 120.382813 55.585937 120.382813 121.988281 0 35.523437-15.445313 69.210937-42.375 92.433593zm0 0"/><path d="m209.1875 113.820312h-.15625c-5.511719-.054687-10 4.363282-10.066406 9.882813-.0625 5.523437 4.410156 10.054687 9.933594 10.117187h.152343.121094c5.464844 0 9.882813-4.398437 9.945313-9.882812.066406-5.523438-4.40625-10.050781-9.929688-10.117188zm0 0"/><path d="m253.175781 125.554688c-4.828125-2.6875-10.917969-.953126-13.605469 3.875-2.683593 4.824218-.953124 10.914062 3.875 13.601562 23.269532 12.957031 37.722657 37.53125 37.722657 64.136719 0 5.523437 4.476562 10 10 10 5.523437 0 10-4.476563 10-10 0-33.855469-18.390625-65.125-47.992188-81.613281zm0 0"/><path d="m207.167969 47c5.523437 0 10-4.476562 10-10v-27c0-5.523438-4.476563-10-10-10-5.523438 0-10 4.476562-10 10v27c0 5.523438 4.476562 10 10 10zm0 0"/><path d="m404.335938 197.167969h-27c-5.523438 0-10 4.476562-10 10 0 5.523437 4.476562 10 10 10h27c5.523437 0 10-4.476563 10-10 0-5.523438-4.476563-10-10-10zm0 0"/><path d="m37 197.167969h-27c-5.523438 0-10 4.476562-10 10 0 5.523437 4.476562 10 10 10h27c5.523438 0 10-4.476563 10-10 0-5.523438-4.476562-10-10-10zm0 0"/><path d="m334.566406 320.425781c-3.90625-3.90625-10.238281-3.90625-14.144531 0-3.902344 3.902344-3.902344 10.234375 0 14.140625l19.09375 19.09375c1.953125 1.949219 4.511719 2.929688 7.070313 2.929688 2.558593 0 5.117187-.980469 7.070312-2.929688 3.90625-3.90625 3.90625-10.238281 0-14.144531zm0 0"/><path d="m79.769531 93.910156c1.953125 1.953125 4.511719 2.929688 7.070313 2.929688s5.121094-.976563 7.070312-2.929688c3.90625-3.902344 3.90625-10.234375 0-14.140625l-19.089844-19.09375c-3.90625-3.902343-10.238281-3.902343-14.144531 0-3.90625 3.90625-3.902343 10.238281 0 14.144531zm0 0"/><path d="m339.515625 60.679688-19.089844 19.089843c-3.90625 3.90625-3.90625 10.238281 0 14.144531 1.953125 1.953126 4.511719 2.929688 7.070313 2.929688s5.117187-.976562 7.070312-2.929688l19.089844-19.09375c3.90625-3.90625 3.90625-10.238281 0-14.144531-3.902344-3.90625-10.234375-3.902343-14.140625.003907zm0 0"/><path d="m79.769531 320.425781-19.089843 19.089844c-3.90625 3.90625-3.90625 10.238281 0 14.144531 1.953124 1.949219 4.511718 2.929688 7.070312 2.929688s5.117188-.980469 7.070312-2.929688l19.089844-19.09375c3.90625-3.90625 3.90625-10.238281 0-14.140625-3.902344-3.90625-10.234375-3.90625-14.140625 0zm0 0"/></svg>